<?xml version="1.0" encoding="utf-8"?>
<!-- Generator: Adobe Illustrator 23.0.3, SVG Export Plug-In . SVG Version: 6.00 Build 0)  -->
<svg version="1.1" id="Calque_1" xmlns="http://www.w3.org/2000/svg" xmlns:xlink="http://www.w3.org/1999/xlink" x="0px" y="0px"
	 viewBox="0 0 501.3 503.6" style="enable-background:new 0 0 501.3 503.6;" xml:space="preserve">
<style type="text/css">
	.st0{fill:#0065FC;}
	.st1{opacity:0.5;fill:none;stroke:#000000;stroke-width:7;stroke-miterlimit:10;}
</style>
<path class="st0" d="M274.4,157c0,13.1-10.6,23.7-23.7,23.7S227,170.1,227,157s10.6-23.7,23.7-23.7S274.4,143.9,274.4,157z
	 M203.3,228.1c0-8.7,7.1-15.8,15.8-15.8h31.6c8.7,0,15.8,7.1,15.8,15.8v110.6h15.8c8.7,0,15.8,7.1,15.8,15.8
	c0,8.7-7.1,15.8-15.8,15.8h-63.2c-8.7,0-15.8-7.1-15.8-15.8c0-8.7,7.1-15.8,15.8-15.8h15.8v-94.8h-15.8
	C210.3,243.9,203.3,236.8,203.3,228.1z"/>
<circle class="st1" cx="251.7" cy="250.3" r="244.3"/>
</svg>
