<?xml version="1.0" encoding="utf-8"?>
<!-- Generator: Adobe Illustrator 23.0.3, SVG Export Plug-In . SVG Version: 6.00 Build 0)  -->
<svg version="1.1" id="Calque_1" xmlns="http://www.w3.org/2000/svg" xmlns:xlink="http://www.w3.org/1999/xlink" x="0px" y="0px"
	 viewBox="0 0 576 512" style="enable-background:new 0 0 576 512;" xml:space="preserve">
<style type="text/css">
	.st0{fill:#0065FC;}
</style>
<path class="st0" d="M0,112.5v309.8c0,18,10.1,35,27,41.3c87,32.5,174,10.3,261-11.9c79.8-20.3,159.6-40.7,239.3-18.9
	c23,6.3,48.7-9.5,48.7-33.4V89.7c0-18-10.1-35-27-41.3c-87-32.5-174-10.3-261,11.9c-79.8,20.3-159.6,40.6-239.3,18.8
	C25.6,72.8,0,88.6,0,112.5z M288,352c-44.2,0-80-43-80-96s35.8-96,80-96s80,43,80,96S332.2,352,288,352z M64,352
	c35.3,0,64,28.7,64,64H64V352z M128,144c0,35.3-28.7,64-64,64v-64H128z M512,304v64h-64C448,332.7,476.7,304,512,304z M448,96h64v64
	C476.7,160,448,131.3,448,96z"/>
</svg>
